# xmcd
#
# Track frame offsets:
#	182
#	31627
#	62867
#	90465
#	117410
#	141075
#
# Disc length: 2374 seconds
#
# Revision: 0
# Processed by: cddbd v1.4b42PL1 Copyright (c) Steve Scherf et al.
# Submitted via: EasyCDDAExtractor 4.5.0.2
#
DISCID=48094406
DTITLE=Cannonball Adderley - Jazz and Bmues Collection - CD 75
DYEAR=1900
DGENRE=Ballad
TTITLE0=Awful mean
TTITLE1=ease it
TTITLE2=i got rhythm
TTITLE3=julie ann
TTITLE4=just friends
TTITLE5=there is no greater lover
EXTD=
EXTT0=
EXTT1=
EXTT2=
EXTT3=
EXTT4=
EXTT5=
PLAYORDER=
